<svg aria-hidden="true" style="position:absolute;width:0;height:0" xmlns="http://www.w3.org/2000/svg" overflow="hidden"><defs><symbol id="addProductBtn" viewBox="0 0 32 32"><path fill="var(--color1, #fc842d)" d="M27.429 14.171C27.429 20.483 22.312 25.6 16 25.6S4.571 20.483 4.571 14.171 9.688 2.742 16 2.742s11.429 5.117 11.429 11.429z"/><path fill="var(--color2, #fff)" d="M19.2 14.629h-2.743v2.743h-.914v-2.743H12.8v-.914h2.743v-2.743h.914v2.743H19.2v.914z"/></symbol><symbol id="burger" viewBox="0 0 32 32"><path d="M4 24h24v-2.667H4V24zm0-6.667h24v-2.667H4v2.667zM4 8v2.667h24V8H4z"/></symbol><symbol id="cross" viewBox="0 0 32 32"><path d="M25.333 8.546l-1.88-1.88L16 14.12 8.547 6.667l-1.88 1.878 7.453 7.454-7.453 7.453 1.88 1.88L16 17.879l7.453 7.453 1.88-1.88-7.453-7.453 7.453-7.454z"/></symbol><symbol id="forward" viewBox="0 0 32 32"><path d="M8.192 0C4.638 6.439 4.039 16.259 18 15.932V8l12 12-12 12v-7.762C1.282 24.674-.58 9.481 8.192 0z"/></symbol></defs></svg>